<?xml version="1.0" standalone="no"?>
<!DOCTYPE svg PUBLIC "-//W3C//DTD SVG 20010904//EN"
 "http://www.w3.org/TR/2001/REC-SVG-20010904/DTD/svg10.dtd">
<svg version="1.0" xmlns="http://www.w3.org/2000/svg"
 width="1024.000000pt" height="1024.000000pt" viewBox="0 0 1024.000000 1024.000000"
 preserveAspectRatio="xMidYMid meet">

<g transform="translate(0.000000,1024.000000) scale(0.100000,-0.100000)"
fill="#000000" stroke="none">
<path d="M3776 7533 c-75 -69 -85 -82 -86 -113 -1 -64 7 -63 -258 -55 -132 4
-252 5 -266 1 -21 -5 -26 -12 -26 -36 l0 -30 63 0 c175 -1 381 -103 452 -224
l25 -42 0 -1652 c0 -908 -1 -1656 -2 -1662 -2 -7 7 -18 18 -26 20 -14 21 -13
17 9 -4 17 17 60 71 150 41 69 87 150 101 181 l25 55 -2 1758 -3 1758 -22 3
c-15 2 -46 -19 -107 -75z"/>
<path d="M3948 7603 c-2 -5 -3 -813 -3 -1798 l0 -1790 59 -142 59 -142 22 52
c11 29 37 77 56 107 19 30 48 79 64 108 15 28 32 52 37 52 18 0 5 -131 -28
-299 -8 -40 -13 -75 -11 -78 5 -4 27 73 34 117 2 13 8 27 13 30 4 3 11 32 16
65 7 60 7 60 17 25 9 -36 4 -200 -8 -255 -3 -16 -10 -34 -16 -40 -5 -5 -9 -19
-9 -32 0 -12 -12 -57 -26 -100 -23 -71 -31 -97 -33 -114 -1 -3 -8 -6 -17 -6
-11 0 -14 6 -9 21 4 12 8 37 11 56 2 19 9 48 14 64 6 16 10 38 10 50 -1 25
-24 -37 -35 -92 -6 -31 -9 -34 -15 -17 -7 16 -9 17 -9 3 -1 -9 3 -19 8 -22 4
-3 6 -18 3 -33 l-6 -28 -7 25 c-7 25 -7 25 -8 2 -1 -13 -5 -21 -10 -17 -12 7
-23 -28 -15 -49 5 -12 0 -16 -19 -16 -24 0 -25 2 -26 66 0 37 -3 69 -6 72 -3
3 -5 -11 -5 -31 0 -35 -28 -106 -42 -107 -4 0 -9 12 -11 28 -4 26 -4 25 -6 -5
-1 -28 -4 -32 -28 -30 -17 2 -28 9 -29 17 -1 32 -25 126 -35 140 -9 12 -10 11
-4 -5 3 -11 9 -51 11 -90 l5 -70 -25 29 c-14 17 -23 33 -20 38 3 4 -1 8 -8 8
-7 0 -14 -13 -15 -30 -2 -26 1 -30 22 -30 25 0 34 -15 13 -22 -7 -3 0 -26 20
-69 18 -35 42 -102 54 -149 l22 -86 62 4 c69 5 126 -14 89 -29 -11 -4 -45 -8
-77 -8 l-56 -1 14 -47 c22 -72 54 -269 54 -330 0 -34 4 -52 10 -48 6 3 10 25
10 48 0 60 37 280 59 357 11 36 27 117 36 180 19 130 25 144 64 164 22 12 30
26 40 73 16 75 84 214 125 258 23 24 45 36 74 41 l42 7 0 596 1 596 20 -25
c24 -28 67 -101 259 -440 209 -368 733 -1239 754 -1252 19 -13 1258 -9 1318 3
152 32 229 118 227 251 -1 93 -17 121 -18 32 -1 -88 -24 -128 -95 -163 -40
-20 -63 -24 -127 -24 -230 3 -433 146 -638 447 -68 101 -369 592 -466 761
-121 210 -415 715 -455 780 -42 69 -327 558 -388 666 -18 31 -32 63 -32 70 0
29 199 356 329 539 158 224 342 420 519 554 171 129 322 186 527 201 262 18
370 85 388 240 3 28 3 43 0 35 -25 -70 -46 -99 -96 -126 l-52 -29 -285 -1
c-870 -4 -812 -2 -806 -22 5 -15 -18 -40 -103 -111 -257 -216 -485 -494 -726
-888 -21 -35 -42 -63 -46 -63 -11 0 -13 80 -13 620 -1 395 -2 429 -21 483 -13
41 -27 63 -45 72 -14 8 -50 43 -80 78 -54 62 -57 64 -114 71 -81 8 -304 8
-308 -1z m112 -79 c0 -8 -5 -12 -10 -9 -6 4 -8 11 -5 16 9 14 15 11 15 -7z
m-38 -165 c-1 -84 -2 -194 -3 -244 l-2 -90 -8 75 c-11 109 -8 421 4 417 6 -2
10 -61 9 -158z m48 99 c0 -13 -23 -5 -28 10 -2 7 2 10 12 6 9 -3 16 -11 16
-16z m1 -39 c9 -17 8 -20 -2 -14 -9 6 -10 3 -4 -11 4 -10 10 -53 12 -94 3 -59
1 -71 -8 -57 -6 10 -9 38 -7 62 1 24 0 41 -4 39 -9 -6 -14 34 -9 69 4 33 7 33
22 6z m12 -326 c3 -89 2 -101 -11 -91 -8 7 -10 14 -6 15 5 2 8 47 7 100 -3
126 4 109 10 -24z m1377 62 c0 -3 -19 -16 -41 -31 -23 -14 -93 -77 -156 -140
-123 -123 -137 -129 -34 -13 83 92 231 210 231 184z m-1420 -169 c0 -2 -7 -6
-15 -10 -8 -3 -15 -1 -15 4 0 6 7 10 15 10 8 0 15 -2 15 -4z m1362 -39 c-12
-13 -19 -27 -15 -30 3 -4 1 -7 -5 -7 -7 0 -12 3 -12 7 0 8 41 53 48 53 3 0 -4
-10 -16 -23z m-36 -49 c4 -7 3 -8 -4 -4 -7 4 -12 1 -12 -9 0 -9 -4 -13 -10
-10 -5 3 -10 0 -10 -9 0 -8 -14 -26 -31 -40 -17 -14 -27 -26 -23 -26 5 0 -2
-7 -15 -16 -18 -13 -20 -18 -10 -26 11 -8 11 -9 1 -6 -8 2 -14 7 -14 12 0 8
110 146 117 146 2 0 7 -5 11 -12z m-340 -1753 c15 -20 25 -38 22 -40 -3 -3
-17 13 -32 35 -33 49 -27 52 10 5z m-9 -48 c18 -19 26 -34 18 -34 -7 0 -19 11
-26 24 -7 13 -16 23 -21 23 -4 0 -8 5 -8 10 0 15 3 13 37 -23z m70 -27 c-1
-14 -5 -16 -13 -9 -7 6 -12 19 -11 29 1 14 5 16 13 9 7 -6 12 -19 11 -29z m84
-7 c13 -16 12 -17 -3 -4 -10 7 -18 15 -18 17 0 8 8 3 21 -13z m14 -89 c30 -45
55 -86 55 -90 0 -4 7 -16 17 -26 9 -10 14 -21 11 -24 -7 -6 -54 59 -103 144
-20 34 -40 62 -44 62 -5 0 -11 7 -14 14 -4 10 -1 13 9 9 8 -3 39 -43 69 -89z
m-233 41 c6 -14 16 -25 21 -25 6 0 8 -3 4 -6 -3 -4 1 -13 9 -21 8 -8 11 -19 8
-25 -4 -6 -2 -8 3 -5 6 4 34 -30 63 -76 29 -45 63 -98 76 -117 12 -19 61 -100
109 -180 48 -80 89 -148 91 -152 2 -4 0 -9 -5 -12 -10 -6 -87 102 -151 214
-24 41 -52 86 -62 100 -53 70 -118 182 -112 192 4 7 3 8 -4 4 -7 -4 -12 -3
-12 2 0 5 -16 33 -35 61 -19 28 -35 55 -35 61 0 19 21 10 32 -15z m-91 -2 c13
-16 12 -17 -3 -4 -10 7 -18 15 -18 17 0 8 8 3 21 -13z m415 -273 c11 -14 11
-16 -5 -17 -12 -1 -35 25 -72 80 -30 45 -54 84 -55 87 0 3 -8 22 -17 44 -9 21
-17 41 -17 45 0 3 34 -46 76 -109 42 -63 82 -122 90 -130z m-296 119 c33 -51
58 -94 56 -97 -3 -2 4 -21 15 -40 10 -20 19 -40 19 -44 0 -4 14 -27 30 -51 17
-25 30 -48 30 -53 0 -4 6 -15 13 -24 6 -9 -2 0 -20 19 -17 19 -31 40 -30 46 1
5 -4 9 -11 7 -8 -1 -11 2 -7 9 4 6 -4 23 -17 37 -29 33 -81 112 -72 112 3 0
-4 16 -16 35 -12 19 -18 40 -14 46 4 7 3 9 -3 6 -6 -4 -14 4 -17 18 -4 14 -10
24 -14 21 -4 -2 -8 7 -8 20 -1 13 0 24 2 24 3 0 31 -41 64 -91z m380 -125 c0
-8 11 -21 25 -30 14 -9 23 -19 20 -22 -7 -7 -55 38 -55 51 0 6 -8 20 -17 31
-18 21 -18 21 5 2 12 -11 22 -25 22 -32z m-30 -75 c15 -28 5 -23 -15 7 -9 15
-12 23 -6 20 6 -4 16 -16 21 -27z m-140 -104 c0 -16 -27 28 -34 55 -5 19 -2
16 13 -10 11 -19 20 -39 21 -45z m164 59 c3 -8 2 -12 -4 -9 -6 3 -10 10 -10
16 0 14 7 11 14 -7z m-117 -150 c-2 -3 -10 9 -17 26 -7 16 -16 27 -21 24 -5
-3 -6 3 -2 12 5 13 10 9 25 -21 11 -20 17 -39 15 -41z m173 56 c6 -11 8 -20 6
-20 -3 0 -10 9 -16 20 -6 11 -8 20 -6 20 3 0 10 -9 16 -20z m-210 -40 c4 7 13
-3 23 -28 9 -22 21 -43 27 -47 13 -8 13 1 -1 28 -9 18 -9 20 1 10 7 -6 14 -29
16 -49 l3 -38 -32 50 c-17 27 -37 53 -44 57 -7 4 -13 13 -12 20 0 8 3 7 6 -2
4 -10 7 -10 13 -1z m227 -356 c-2 -3 -14 10 -26 28 -11 18 -31 49 -45 68 -13
19 -22 38 -19 43 2 4 -1 7 -7 7 -6 0 -8 5 -5 10 3 6 1 10 -4 10 -6 0 -10 3 -9
8 1 4 -6 21 -15 39 -9 18 -17 36 -17 40 0 4 34 -50 76 -120 42 -71 74 -130 71
-133z m-9 141 c-3 -3 -9 2 -12 12 -6 14 -5 15 5 6 7 -7 10 -15 7 -18z m30
-180 c-3 -3 -9 2 -12 12 -6 14 -5 15 5 6 7 -7 10 -15 7 -18z m-1068 -483 c0
-4 -8 -17 -18 -30 -17 -22 -18 -22 -19 -2 -1 12 5 24 13 27 7 3 11 10 7 16 -3
6 -1 7 5 3 7 -4 12 -10 12 -14z"/>
<path d="M4190 3630 c0 -16 2 -30 4 -30 2 0 6 14 8 30 3 17 1 30 -4 30 -4 0
-8 -13 -8 -30z"/>
<path d="M4171 3554 c0 -11 3 -14 6 -6 3 7 2 16 -1 19 -3 4 -6 -2 -5 -13z"/>
<path d="M3845 3440 c2 -27 10 -33 12 -10 1 11 -2 22 -6 24 -4 3 -7 -4 -6 -14z"/>
<path d="M3980 3400 c0 -16 4 -30 8 -30 5 0 7 14 4 30 -2 17 -6 30 -8 30 -2 0
-4 -13 -4 -30z"/>
</g>
</svg>
